<?xml version="1.0" encoding="UTF-8" standalone="no"?>
<!-- Created with Inkscape (http://www.inkscape.org/) -->
<svg id="svg2" xmlns:rdf="http://www.w3.org/1999/02/22-rdf-syntax-ns#" xmlns="http://www.w3.org/2000/svg" height="48" width="48" version="1.0" xmlns:cc="http://web.resource.org/cc/" xmlns:xlink="http://www.w3.org/1999/xlink" xmlns:dc="http://purl.org/dc/elements/1.1/">
 <defs id="defs4">
  <linearGradient id="linearGradient6856">
   <stop id="stop6858" offset="0"/>
   <stop id="stop6860" stop-opacity="0" offset="1"/>
  </linearGradient>
  <linearGradient id="linearGradient6594">
   <stop id="stop6596" stop-color="#fff" offset="0"/>
   <stop id="stop6714" stop-color="#babdb6" offset=".5"/>
   <stop id="stop6598" stop-color="#fff" offset="1"/>
  </linearGradient>
  <linearGradient id="linearGradient6393">
   <stop id="stop6395" stop-color="#d3d7cf" offset="0"/>
   <stop id="stop6401" stop-color="#fff" offset=".5"/>
   <stop id="stop6397" stop-color="#eeeeec" offset="1"/>
  </linearGradient>
  <linearGradient id="linearGradient6377">
   <stop id="stop6379" stop-color="#2e3436" offset="0"/>
   <stop id="stop6381" stop-color="#2e3436" stop-opacity="0" offset="1"/>
  </linearGradient>
  <linearGradient id="linearGradient6346" y2="46.566" gradientUnits="userSpaceOnUse" x2="-31.085" y1="17.625" x1="-7.4494">
   <stop id="stop6342" stop-color="#fff" offset="0"/>
   <stop id="stop6344" stop-color="#fff" stop-opacity="0" offset="1"/>
  </linearGradient>
  <linearGradient id="linearGradient6383" y2="6.8994" xlink:href="#linearGradient6377" gradientUnits="userSpaceOnUse" x2="17.103" gradientTransform="translate(1,-1)" y1="5.834" x1="16.175"/>
  <linearGradient id="linearGradient6387" y2="7.2198" xlink:href="#linearGradient6377" gradientUnits="userSpaceOnUse" x2="17.468" gradientTransform="matrix(.70711 .70711 -.70711 .70711 25.844 -1.2694)" y1="6.2096" x1="16.595"/>
  <linearGradient id="linearGradient6391" y2="4.7781" xlink:href="#linearGradient6377" gradientUnits="userSpaceOnUse" x2="16.579" gradientTransform="matrix(-1 0 0 -1 60.72 35.508)" y1="5.8934" x1="17.694"/>
  <linearGradient id="linearGradient6399" y2="20.214" xlink:href="#linearGradient6393" gradientUnits="userSpaceOnUse" x2="33.601" y1="15.036" x1="14.274"/>
  <linearGradient id="linearGradient6409" y2="13" xlink:href="#linearGradient6393" gradientUnits="userSpaceOnUse" x2="22.398" y1="11.256" x1="8.569"/>
  <linearGradient id="linearGradient6417" y2="27.537" xlink:href="#linearGradient6393" gradientUnits="userSpaceOnUse" x2="40.57" y1="37.35" x1="40.57"/>
  <linearGradient id="linearGradient6425" y2="24.377" xlink:href="#linearGradient6393" gradientUnits="userSpaceOnUse" x2="33.807" y1="34.234" x1="31.166"/>
  <linearGradient id="linearGradient6703" y2="33.562" xlink:href="#linearGradient6594" gradientUnits="userSpaceOnUse" x2="13.688" y1="37" x1="13.66"/>
  <linearGradient id="linearGradient6706" y2="34.312" xlink:href="#linearGradient6594" gradientUnits="userSpaceOnUse" x2="14.001" gradientTransform="translate(0,-3)" y1="36.688" x1="14.001"/>
  <linearGradient id="linearGradient6718" y2="33.562" xlink:href="#linearGradient6594" gradientUnits="userSpaceOnUse" x2="13.688" gradientTransform="translate(0,3)" y1="37" x1="13.66"/>
  <linearGradient id="linearGradient6722" y2="33.562" xlink:href="#linearGradient6594" gradientUnits="userSpaceOnUse" x2="13.688" gradientTransform="translate(0,6)" y1="37" x1="13.66"/>
  <linearGradient id="linearGradient6726" y2="33.562" xlink:href="#linearGradient6594" gradientUnits="userSpaceOnUse" x2="13.688" gradientTransform="translate(0,9)" y1="37" x1="13.66"/>
  <linearGradient id="linearGradient6782" y2="24.284" gradientUnits="userSpaceOnUse" x2="19.899" y1="20.627" x1="8.1083">
   <stop id="stop6778" stop-color="#fff" offset="0"/>
   <stop id="stop6780" stop-color="#fff" stop-opacity="0" offset="1"/>
  </linearGradient>
  <linearGradient id="linearGradient6852" y2="36.166" gradientUnits="userSpaceOnUse" x2="-4.8166" y1="36.048" x1="-9.6076">
   <stop id="stop6352" stop-color="#c00" offset="0"/>
   <stop id="stop6354" stop-color="#ef2929" offset="1"/>
  </linearGradient>
  <radialGradient id="radialGradient6862" xlink:href="#linearGradient6856" gradientUnits="userSpaceOnUse" cy="37.924" cx="23.953" gradientTransform="matrix(1 0 0 .42909 0 21.651)" r="24.307"/>
  <linearGradient id="linearGradient6892" y2="16.062" gradientUnits="userSpaceOnUse" x2="19.187" y1="14.625" x1="17.75">
   <stop id="stop6888" offset="0"/>
   <stop id="stop6890" stop-opacity="0" offset="1"/>
  </linearGradient>
 </defs>
 <metadata id="metadata7">
  <rdf:RDF>
   <cc:Work rdf:about="">
    <dc:format>image/svg+xml</dc:format>
    <dc:type rdf:resource="http://purl.org/dc/dcmitype/StillImage"/>
    <cc:license rdf:resource="http://creativecommons.org/licenses/GPL/2.0/"/>
    <dc:creator>
     <cc:Agent>
      <dc:title>Lapo Calamandrei</dc:title>
     </cc:Agent>
    </dc:creator>
    <dc:title>Swiss Army Knife</dc:title>
    <dc:subject>
     <rdf:Bag>
      <rdf:li>utilities</rdf:li>
     </rdf:Bag>
    </dc:subject>
   </cc:Work>
   <cc:License rdf:about="http://creativecommons.org/licenses/GPL/2.0/">
    <cc:permits rdf:resource="http://web.resource.org/cc/Reproduction"/>
    <cc:permits rdf:resource="http://web.resource.org/cc/Distribution"/>
    <cc:requires rdf:resource="http://web.resource.org/cc/Notice"/>
    <cc:permits rdf:resource="http://web.resource.org/cc/DerivativeWorks"/>
    <cc:requires rdf:resource="http://web.resource.org/cc/ShareAlike"/>
    <cc:requires rdf:resource="http://web.resource.org/cc/SourceCode"/>
   </cc:License>
  </rdf:RDF>
 </metadata>
 <g id="layer1">
  <path id="rect6318" d="m7.9462 13.5h24.2c8.19 0 9.354 2.04 9.354 2.04s-1.334 3.96-17.231 3.96h-16.323c-1.909 0-3.446-1.338-3.446-3s1.537-3 3.4462-3z" stroke-dashoffset=".7" stroke="#888a85" stroke-linecap="round" fill="url(#linearGradient6399)"/>
  <path id="path6365" d="m7.9375 14.188c-1.588 0-2.75 1.071-2.75 2.312s1.162 2.312 2.75 2.312h16.344c7.89 0 12.125-1.001 14.312-1.937 1.093-0.468 1.668-0.919 1.968-1.219-0.191-0.137-0.407-0.307-0.906-0.5-1.2-0.464-3.462-0.968-7.5-0.968h-24.218z" stroke-dashoffset=".7" stroke="#fff" stroke-linecap="round" fill="none"/>
  <path id="path6873" opacity=".25862" d="m7.9375 13c-2.1428 0-3.9375 1.531-3.9375 3.5s1.7947 3.5 3.9375 3.5h16.344l0.874-7h-17.218z" fill="url(#linearGradient6892)"/>
  <path id="rect5331" d="m7.3107 12.969c-1.6702 1.671-1.6481 4.363 0.0221 6.033 1.6701 1.67 4.3402 1.67 6.0102 0l4.132-4.132c1.967-1.967 3.336-3.675 4.265-5.1931l-0.862-0.8618-2.165 2.1659c-0.49 0.489-1.278 0.489-1.768 0l-0.309-0.31c-0.49-0.489-0.49-1.2779 0-1.7675l3.314-3.3146c0.416-0.4162 1.087-0.4162 1.503 0l1.525 1.5247c0.799-2.3509 0.707-5.5037-0.191-6.4018-0.92-0.91991-4.68 1.4612-6.35 3.1314l-9.1263 9.1258z" stroke-dashoffset=".7" stroke="#888a85" stroke-linecap="round" fill="url(#linearGradient6409)"/>
  <path id="path6854" opacity=".14224" d="m48.26 37.924a24.307 10.43 0 1 1 -48.614 0 24.307 10.43 0 1 1 48.614 0z" transform="matrix(.92735 0 0 .52271 2.4241 22.447)" fill="url(#radialGradient6862)"/>
  <path id="path6894" opacity=".28017" d="m48.26 37.924a24.307 10.43 0 1 1 -48.614 0 24.307 10.43 0 1 1 48.614 0z" transform="matrix(.30437 0 0 .29184 21.89 31.265)" fill="url(#radialGradient6862)"/>
  <path id="path6321" d="m34.5 39.061v-10.494c0-6.778-2.01-7.523-2.01-7.523s-2.99 2.095-2.99 9.976v8.041c0 1.628 1.115 2.939 2.5 2.939s2.5-1.311 2.5-2.939z" stroke-dashoffset=".7" stroke="#888a85" stroke-linecap="round" fill="url(#linearGradient6425)"/>
  <path id="path6373" d="m32.5 22.688c-0.227 0.277-0.483 0.646-0.781 1.25-0.689 1.39-1.407 3.755-1.407 7.593v8.031c0 1.262 0.81 2.126 1.688 2.126s1.688-0.864 1.688-2.126v-10.5c0-3.309-0.481-5.087-0.907-5.968-0.114-0.237-0.188-0.281-0.281-0.406z" transform="translate(0 -.5)" stroke-dashoffset=".7" stroke="#fff" stroke-linecap="round" fill="none"/>
  <path id="rect6323" d="m29.495 37.757c-1.443 1.444-1.175 3.068 0 4.243s3.286 0.957 4.729-0.486l10.645-10.646c2.122-2.121 2.829-4.949 2.829-4.949l-2.121-2.122s-2.134 0.524-4.022 1.989c-1.406 2.036-0.411 4.565-2.342 6.496-0.98 0.98-1.557-0.02-2.536-1-0.122-0.122-0.217-0.259-0.309-0.397l-6.873 6.872z" stroke-dashoffset=".7" stroke="#888a85" stroke-linecap="round" fill="url(#linearGradient6417)"/>
  <path id="path6369" d="m45.375 24.625c-0.436 0.122-1.806 0.515-3.281 1.625-0.549 0.832-0.644 1.809-0.813 2.938-0.172 1.155-0.448 2.479-1.562 3.593-0.311 0.311-0.659 0.538-1.063 0.594-0.403 0.056-0.782-0.101-1.062-0.281-0.503-0.324-0.857-0.772-1.25-1.188l-6.344 6.344c-0.614 0.614-0.805 1.158-0.781 1.688 0.024 0.529 0.288 1.069 0.781 1.562 0.852 0.852 2.487 0.732 3.719-0.5l10.656-10.625c1.744-1.744 2.364-3.798 2.5-4.281l-1.5-1.469z" stroke-dashoffset=".7" stroke="#fff" stroke-linecap="round" fill="none"/>
  <path id="path6334" d="m14.003 25.466c-10.767 10.767-11.503 11.255-11.503 15.034l14-13.5-2.497-1.534z" fill-rule="evenodd" stroke="#888a85" stroke-width="1px" fill="#eeeeec"/>
  <path id="path6360" d="m22.25 1.2812c-0.064-0.0059-0.201 0.0141-0.406 0.0626-1.199 0.2829-3.738 1.8938-4.875 3.0312l-9.1252 9.125c-1.3778 1.378-1.3532 3.584 0.0312 4.969 1.3844 1.384 3.553 1.384 4.937 0l4.126-4.125c1.382-1.382 3.265-3.524 4.093-4.6471l-1.781 1.8031c-0.784 0.784-2.06 0.784-2.844 0l-0.312-0.312c-0.772-0.773-0.772-2.0409 0-2.813l3.312-3.3125c0.704-0.704 1.859-0.704 2.563 0l0.469 0.4687c0.13-0.7279 0.332-1.4488 0.312-2.125-0.031-1.088-0.354-1.9641-0.5-2.125z" stroke-dashoffset=".7" stroke="#fff" stroke-linecap="round" fill="none"/>
  <path id="path6429" d="m14.062 26.219c-5.1074 5.105-7.9367 7.926-9.3745 9.75-0.9642 1.223-1.2582 2.07-1.4063 2.969l12.25-11.844-1.469-0.875z" stroke="#fff" stroke-width="1px" fill="none"/>
  <path id="path6634" stroke-linejoin="round" d="m13.5 33.5c1.104 0 1-0.5 1-1.5v-4.5" stroke-dashoffset=".7" stroke="#888a85" stroke-linecap="round" stroke-width="3" fill="none"/>
  <g id="g6733" stroke-linejoin="round" stroke-dashoffset=".7" stroke="#888a85" stroke-linecap="round" stroke-width="3" fill="none">
   <path id="path6557" d="m13.5 36.5c1.104 0 2-0.5 2-1.5s-0.896-1.5-2-1.5"/>
   <path id="path6559" d="m13.5 39.5c1.104 0 2-0.5 2-1.5s-0.896-1.5-2-1.5"/>
   <path id="path6561" d="m13.5 42.5c1.104 0 2-0.5 2-1.5s-0.896-1.5-2-1.5"/>
   <path id="path6563" d="m13.5 45.5c1.104 0 2-0.5 2-1.5s-0.896-1.5-2-1.5"/>
   <path id="path6565" d="m14.914 45.875c-0.362-0.25-0.862-0.375-1.414-0.375"/>
  </g>
  <path id="path6630" stroke-linejoin="round" d="m13.5 33.5c1.104 0 1-0.5 1-1.5v-4.5" stroke-dashoffset=".7" stroke="url(#linearGradient6706)" stroke-linecap="round" stroke-width="1.3" fill="none"/>
  <path id="path6452" stroke-linejoin="round" d="m13.5 36.5c1.104 0 2-0.5 2-1.5s-0.896-1.5-2-1.5" stroke-dashoffset=".7" stroke="url(#linearGradient6703)" stroke-linecap="round" stroke-width="1.3" fill="none"/>
  <rect id="rect5329" transform="matrix(.71860 -.69542 .71860 .69542 0 0)" stroke-dashoffset=".7" rx="4.2185" ry="4.2185" height="39.634" width="8.437" stroke="#a40000" stroke-linecap="round" y="13.894" x="-11.49" stroke-width="1.0003" fill="url(#linearGradient6852)"/>
  <path id="path6338" opacity=".5" d="m-7.2812 14.906c-1.8041 0-3.2188 1.415-3.2188 3.219v31.187c0 1.805 1.4147 3.219 3.2188 3.219 1.804 0 3.2187-1.414 3.2187-3.219v-31.187c0-1.804-1.4147-3.219-3.2187-3.219z" transform="matrix(.71860 -.69542 .71860 .69542 0 0)" stroke-dashoffset=".7" stroke="url(#linearGradient6346)" stroke-linecap="round" stroke-width="1.0003" fill="none"/>
  <path id="path6375" d="m15.451 6.9159l4.111-4.1985c0.819 0.9353-2.016 3.9077-4.111 4.1985z" fill-rule="evenodd" fill="url(#linearGradient6383)"/>
  <path id="path6385" d="m31 15h6c-0.082 1.241-4.313 1.276-6 0z" fill-rule="evenodd" fill="url(#linearGradient6387)"/>
  <path id="path6389" d="m46.269 27.592l-4.11 4.199c-0.82-0.935 2.015-3.908 4.11-4.199z" fill-rule="evenodd" fill="url(#linearGradient6391)"/>
  <path id="path6716" stroke-linejoin="round" d="m13.5 39.5c1.104 0 2-0.5 2-1.5s-0.896-1.5-2-1.5" stroke-dashoffset=".7" stroke="url(#linearGradient6718)" stroke-linecap="round" stroke-width="1.3" fill="none"/>
  <path id="path6720" stroke-linejoin="round" d="m13.5 42.5c1.104 0 2-0.5 2-1.5s-0.896-1.5-2-1.5" stroke-dashoffset=".7" stroke="url(#linearGradient6722)" stroke-linecap="round" stroke-width="1.3" fill="none"/>
  <path id="path6724" stroke-linejoin="round" d="m13.5 45.5c1.104 0 2-0.5 2-1.5s-0.896-1.5-2-1.5" stroke-dashoffset=".7" stroke="url(#linearGradient6726)" stroke-linecap="round" stroke-width="1.3" fill="none"/>
  <path id="path6555" stroke-linejoin="round" d="m14.914 45.875c-0.362-0.25-0.862-0.375-1.414-0.375" stroke-dashoffset=".7" stroke="#fff" stroke-linecap="round" stroke-width="1.3" fill="#fff"/>
  <path id="rect6749" fill="url(#linearGradient6782)" d="m10.5 19.5l-1 1 1 1-1 1 1 1 1-1 1 1 1-1-1-1 1-1-1-1-1 1-1-1z"/>
  <rect id="rect6864" stroke-linejoin="round" stroke-dashoffset=".7" transform="rotate(-45)" height="2.4531" width="2.3281" stroke="#c00" stroke-linecap="round" y="50.892" x="-7.5205" fill="#d3d7cf"/>
  <path id="rect6866" stroke-linejoin="round" d="m-5.7117 53.379h-1.2895" transform="rotate(-45)" stroke-dashoffset=".7" stroke="#babdb6" stroke-width="1.2" fill="#babdb6"/>
 </g>
</svg>
