<?xml version="1.0" encoding="utf-8"?>
<!-- Generator: Adobe Illustrator 16.0.0, SVG Export Plug-In . SVG Version: 6.00 Build 0)  -->
<!DOCTYPE svg PUBLIC "-//W3C//DTD SVG 1.1//EN" "http://www.w3.org/Graphics/SVG/1.1/DTD/svg11.dtd">
<svg version="1.1" xmlns="http://www.w3.org/2000/svg" xmlns:xlink="http://www.w3.org/1999/xlink" x="0px" y="0px" width="512px"
	 height="512px" viewBox="0 0 512 512" enable-background="new 0 0 512 512" xml:space="preserve">
<g id="Shape_10_copy_1_" enable-background="new    ">
	<g id="Shape_10_copy">
		<g>
			
				<rect x="-21.402" y="247.489" transform="matrix(0.7071 -0.7071 0.7071 0.7071 -113.8671 255.1003)" width="544.804" height="35.021"/>
		</g>
	</g>
</g>
<g id="Shape_12_1_" enable-background="new    ">
	<g id="Shape_12">
		<g>
			<path d="M372.541,152.166c-37.457-21.009-75.846-28.992-113.845-29.158c-38.126,0.447-75.838,8.438-113.905,29.397
				C106.807,172.757,68.467,206.079,31,243.161c0,13.946,0,27.893,0,41.839c75.354-73.541,151.393-124.904,226.495-123.654
				C332.769,160.071,407.104,211.41,483,285c0-13.946,0-27.893,0-41.839C446.687,206.005,410.08,172.573,372.541,152.166z"/>
		</g>
	</g>
</g>
<g id="Shape_12_copy_1_" enable-background="new    ">
	<g id="Shape_12_copy">
		<g>
			<path d="M256.505,368.654C181.231,369.929,106.896,318.59,31,245c0,13.946,0,27.893,0,41.839
				c36.313,37.156,72.92,70.588,110.459,90.994c37.457,21.009,75.846,28.993,113.845,29.159
				c38.126-0.447,75.838-8.438,113.905-29.397c37.984-20.352,76.323-53.674,113.791-90.756c0-13.946,0-27.893,0-41.839
				C407.646,318.541,331.607,369.904,256.505,368.654z"/>
		</g>
	</g>
</g>
<g id="Ellipse_1_1_" enable-background="new    ">
	<g id="Ellipse_1">
		<g>
			<ellipse cx="257.5" cy="260.5" rx="77.5" ry="65.5"/>
		</g>
	</g>
</g>
</svg>
