<?xml version="1.0" encoding="utf-8"?>
<!-- Generator: Adobe Illustrator 16.0.0, SVG Export Plug-In . SVG Version: 6.00 Build 0)  -->
<!DOCTYPE svg PUBLIC "-//W3C//DTD SVG 1.1//EN" "http://www.w3.org/Graphics/SVG/1.1/DTD/svg11.dtd">
<svg version="1.1" xmlns="http://www.w3.org/2000/svg" xmlns:xlink="http://www.w3.org/1999/xlink" x="0px" y="0px" width="512px"
	 height="512px" viewBox="0 0 512 512" enable-background="new 0 0 512 512" xml:space="preserve">
<g id="Shape_1_1_" enable-background="new    ">
	<g id="Shape_1">
		<g>
			<rect x="75" y="41" width="35" height="259"/>
		</g>
	</g>
</g>
<g id="Shape_2_1_" enable-background="new    ">
	<g id="Shape_2">
		<g>
			<rect x="75" y="41" width="256" height="35"/>
		</g>
	</g>
</g>
<g id="Shape_3_1_" enable-background="new    ">
	<g id="Shape_3">
		<g>
			<polygon points="331.163,41.015 306.992,66.24 423.837,177.985 448.008,152.76 			"/>
		</g>
	</g>
</g>
<g id="Shape_4_1_" enable-background="new    ">
	<g id="Shape_4">
		<g>
			<rect x="268.591" y="295.5" transform="matrix(0.0062 -1 1 0.0062 113.8369 740.5465)" width="321.819" height="35.001"/>
		</g>
	</g>
</g>
<g id="Shape_6_1_" enable-background="new    ">
	<g id="Shape_6">
		<g>
			<polygon points="326.999,41.005 292,41.363 293,176.995 327.999,176.637 			"/>
		</g>
	</g>
</g>
<g id="Shape_7_1_" enable-background="new    ">
	<g id="Shape_7">
		<g>
			<rect x="293" y="164" width="129" height="35"/>
		</g>
	</g>
</g>
<g id="Shape_8_1_" enable-background="new    ">
	<g id="Shape_8">
		<g>
			<rect x="252" y="439" width="184" height="35"/>
		</g>
	</g>
</g>
<g id="Shape_5_copy_2_1_" enable-background="new    ">
	<g id="Shape_5_copy_2">
		<g>
			<polygon fill-rule="evenodd" clip-rule="evenodd" points="269.994,393 269.932,358 190.407,358.408 190,279.006 155,279.068 
				155.408,358.588 75.005,359 75.068,394 155.587,393.587 156,473.994 191,473.932 190.587,393.407 			"/>
		</g>
	</g>
</g>
</svg>
